<svg width="150" height="150" viewBox="0 0 150 150" fill="none" xmlns="http://www.w3.org/2000/svg">
<path d="M137.706 10.0344V136.6H127.097V15.0184H66.3687V136.6H58.817V10.0344C58.817 7.26645 61.0322 5 63.8515 5H132.672C135.441 4.99995 137.706 7.26645 137.706 10.0344Z" fill="#16054E"/>
<path d="M18.4382 11.1442L66.381 15.0013V136.6L18.9038 144.923C15.8227 145.463 13 143.092 13 139.964V16.1624C13.0001 13.2228 15.508 10.9085 18.4382 11.1442Z" fill="#8D6CFA"/>
<path d="M21.6836 85.6264C20.6663 85.6264 19.8415 84.8016 19.8415 83.7843V72.3437C19.8415 71.3263 20.6663 70.5016 21.6836 70.5016C22.701 70.5016 23.5257 71.3263 23.5257 72.3437V83.7843C23.5258 84.8016 22.701 85.6264 21.6836 85.6264Z" fill="#4C2CEC"/>
</svg>
