<svg width="183" height="71" viewBox="0 0 183 71" fill="none" xmlns="http://www.w3.org/2000/svg">
<rect y="4.5" width="8.66667" height="8.66667" rx="4.33333" fill="#4ECC4E"/>
<path d="M18.5553 13.1667V3.93675H23.9243V5.08075H19.7643V7.87575H23.0533V9.01975H19.7643V13.1667H18.5553ZM26.4109 4.70375C26.2635 4.85108 26.0772 4.92475 25.8519 4.92475C25.6265 4.92475 25.4359 4.85108 25.2799 4.70375C25.1239 4.54775 25.0459 4.35708 25.0459 4.13175C25.0459 3.91508 25.1239 3.72875 25.2799 3.57275C25.4359 3.41675 25.6265 3.33875 25.8519 3.33875C26.0772 3.33875 26.2635 3.41675 26.4109 3.57275C26.5582 3.72875 26.6319 3.91508 26.6319 4.13175C26.6319 4.35708 26.5582 4.54775 26.4109 4.70375ZM25.2799 13.1667V6.66675H26.3979V13.1667H25.2799ZM28.5172 13.1667V6.66675H29.6352V7.66775C30.0772 6.91375 30.7662 6.53675 31.7022 6.53675C32.4389 6.53675 33.0325 6.77508 33.4832 7.25175C33.9339 7.72841 34.1592 8.36541 34.1592 9.16275V13.1667H33.0542V9.33175C33.0542 8.78575 32.9155 8.35675 32.6382 8.04475C32.3609 7.72408 31.9882 7.56375 31.5202 7.56375C30.9829 7.56375 30.5322 7.77608 30.1682 8.20075C29.8129 8.62541 29.6352 9.20608 29.6352 9.94275V13.1667H28.5172ZM38.6183 13.2317C38.0203 13.2317 37.5393 13.0627 37.1753 12.7247C36.8113 12.3867 36.6293 11.8927 36.6293 11.2427V7.69375H35.2513V6.66675H36.6293V4.85975H37.7473V6.66675H39.6193V7.69375H37.7473V11.0997C37.7473 11.5071 37.834 11.7931 38.0073 11.9577C38.1806 12.1224 38.4536 12.2047 38.8263 12.2047C39.1556 12.2047 39.42 12.1614 39.6193 12.0747V13.0757C39.3073 13.1797 38.9736 13.2317 38.6183 13.2317ZM43.7276 13.2967C42.7829 13.2967 41.9986 12.9761 41.3746 12.3347C40.7593 11.6934 40.4516 10.8874 40.4516 9.91675C40.4516 8.93741 40.7506 8.13141 41.3486 7.49875C41.9553 6.85741 42.7569 6.53675 43.7536 6.53675C44.7589 6.53675 45.5476 6.89208 46.1196 7.60275C46.6916 8.31341 46.9429 9.18441 46.8736 10.2157H41.5826C41.5999 10.8051 41.8166 11.2991 42.2326 11.6977C42.6486 12.0877 43.1513 12.2827 43.7406 12.2827C44.6246 12.2827 45.2529 11.9187 45.6256 11.1907H46.7696C46.6049 11.7974 46.2539 12.3001 45.7166 12.6987C45.1793 13.0974 44.5163 13.2967 43.7276 13.2967ZM45.0016 7.99275C44.6463 7.68075 44.2173 7.52475 43.7146 7.52475C43.2119 7.52475 42.7613 7.67641 42.3626 7.97975C41.9726 8.28308 41.7299 8.73375 41.6346 9.33175H45.6906C45.5866 8.74241 45.3569 8.29608 45.0016 7.99275ZM51.3729 13.2967C50.3936 13.2967 49.5832 12.9717 48.9419 12.3217C48.3006 11.6631 47.9799 10.8614 47.9799 9.91675C47.9799 8.97208 48.3006 8.17475 48.9419 7.52475C49.5832 6.86608 50.3936 6.53675 51.3729 6.53675C52.1789 6.53675 52.8766 6.76208 53.4659 7.21275C54.0552 7.65475 54.4496 8.23541 54.6489 8.95475H53.4529C53.2969 8.53008 53.0369 8.19208 52.6729 7.94075C52.3089 7.68941 51.8756 7.56375 51.3729 7.56375C50.7056 7.56375 50.1596 7.78908 49.7349 8.23975C49.3189 8.69041 49.1109 9.24941 49.1109 9.91675C49.1109 10.5841 49.3189 11.1431 49.7349 11.5937C50.1596 12.0444 50.7056 12.2697 51.3729 12.2697C51.8756 12.2697 52.3089 12.1441 52.6729 11.8927C53.0369 11.6414 53.2969 11.3034 53.4529 10.8787H54.6489C54.4582 11.5981 54.0682 12.1831 53.4789 12.6337C52.8896 13.0757 52.1876 13.2967 51.3729 13.2967ZM57.2475 13.1667H56.1295V3.41675H57.2475V7.66775C57.6895 6.91375 58.3785 6.53675 59.3145 6.53675C60.0512 6.53675 60.6448 6.77508 61.0955 7.25175C61.5462 7.72841 61.7715 8.36541 61.7715 9.16275V13.1667H60.6665V9.33175C60.6665 8.78575 60.5278 8.35675 60.2505 8.04475C59.9732 7.72408 59.6005 7.56375 59.1325 7.56375C58.5952 7.56375 58.1445 7.77608 57.7805 8.20075C57.4252 8.62541 57.2475 9.20608 57.2475 9.94275V13.1667ZM159.492 12.4127C158.903 13.0021 158.162 13.2967 157.269 13.2967C156.377 13.2967 155.631 13.0021 155.033 12.4127C154.435 11.8234 154.136 11.1041 154.136 10.2547C154.136 9.80408 154.223 9.40108 154.396 9.04575C154.578 8.68175 154.838 8.30041 155.176 7.90175L158.543 3.93675H159.96L157.139 7.27775C157.295 7.26041 157.417 7.25175 157.503 7.25175C158.275 7.25175 158.946 7.54641 159.518 8.13575C160.099 8.72508 160.389 9.42275 160.389 10.2287C160.389 11.0867 160.09 11.8147 159.492 12.4127ZM157.269 12.2177C157.824 12.2177 158.292 12.0227 158.673 11.6327C159.055 11.2427 159.245 10.7747 159.245 10.2287C159.245 9.68275 159.055 9.21475 158.673 8.82475C158.292 8.43475 157.824 8.23975 157.269 8.23975C156.706 8.23975 156.234 8.43475 155.852 8.82475C155.471 9.20608 155.28 9.67408 155.28 10.2287C155.28 10.7834 155.471 11.2557 155.852 11.6457C156.234 12.0271 156.706 12.2177 157.269 12.2177ZM164.973 13.2967C164.011 13.2967 163.227 12.9761 162.62 12.3347C162.013 11.6847 161.71 10.8484 161.71 9.82575V7.25175C161.71 6.22908 162.013 5.39708 162.62 4.75575C163.235 4.10575 164.02 3.78075 164.973 3.78075C165.926 3.78075 166.711 4.10575 167.326 4.75575C167.941 5.40575 168.249 6.23775 168.249 7.25175V9.82575C168.249 10.8484 167.941 11.6847 167.326 12.3347C166.711 12.9761 165.926 13.2967 164.973 13.2967ZM164.973 12.2047C165.614 12.2047 166.134 11.9924 166.533 11.5677C166.932 11.1431 167.131 10.5624 167.131 9.82575V7.25175C167.131 6.51508 166.932 5.93441 166.533 5.50975C166.134 5.08508 165.614 4.87275 164.973 4.87275C164.34 4.87275 163.825 5.08508 163.426 5.50975C163.027 5.93441 162.828 6.51508 162.828 7.25175V9.82575C162.828 10.5624 163.027 11.1431 163.426 11.5677C163.825 11.9924 164.34 12.2047 164.973 12.2047ZM173.151 13.1667H171.942L177.792 3.93675H179.001L173.151 13.1667ZM178.936 13.2707C178.225 13.2707 177.618 13.0194 177.116 12.5167C176.622 12.0141 176.375 11.4117 176.375 10.7097C176.375 9.99908 176.622 9.39675 177.116 8.90275C177.618 8.40008 178.225 8.14875 178.936 8.14875C179.638 8.14875 180.24 8.40008 180.743 8.90275C181.245 9.39675 181.497 9.99908 181.497 10.7097C181.497 11.4117 181.245 12.0141 180.743 12.5167C180.24 13.0194 179.638 13.2707 178.936 13.2707ZM178.936 12.2567C179.352 12.2567 179.711 12.1051 180.015 11.8017C180.318 11.4897 180.47 11.1257 180.47 10.7097C180.47 10.2937 180.318 9.93408 180.015 9.63075C179.711 9.31875 179.352 9.16275 178.936 9.16275C178.502 9.16275 178.138 9.31441 177.844 9.61775C177.549 9.92108 177.402 10.2851 177.402 10.7097C177.402 11.1344 177.549 11.4984 177.844 11.8017C178.138 12.1051 178.502 12.2567 178.936 12.2567ZM172.007 8.95475C171.296 8.95475 170.689 8.70341 170.187 8.20075C169.693 7.69808 169.446 7.09575 169.446 6.39375C169.446 5.68308 169.693 5.08075 170.187 4.58675C170.689 4.08408 171.296 3.83275 172.007 3.83275C172.709 3.83275 173.311 4.08408 173.814 4.58675C174.316 5.08075 174.568 5.68308 174.568 6.39375C174.568 7.09575 174.316 7.69808 173.814 8.20075C173.311 8.70341 172.709 8.95475 172.007 8.95475ZM172.007 7.94075C172.423 7.94075 172.782 7.78908 173.086 7.48575C173.389 7.17375 173.541 6.80975 173.541 6.39375C173.541 5.97775 173.389 5.61808 173.086 5.31475C172.782 5.00275 172.423 4.84675 172.007 4.84675C171.573 4.84675 171.209 4.99841 170.915 5.30175C170.62 5.60508 170.473 5.96908 170.473 6.39375C170.473 6.81841 170.62 7.18241 170.915 7.48575C171.209 7.78908 171.573 7.94075 172.007 7.94075Z" fill="#16054E"/>
<rect y="30.5" width="8.66667" height="8.66667" rx="4.33333" fill="#8D6CFA"/>
<path d="M18.5553 39.1667V29.9367H23.9373V31.0807H19.7643V33.8757H23.1573V35.0197H19.7643V38.0227H23.9373V39.1667H18.5553ZM28.0975 39.2967C27.1962 39.2967 26.4379 38.9674 25.8225 38.3087C25.2159 37.6501 24.9125 36.8527 24.9125 35.9167C24.9125 34.9807 25.2159 34.1834 25.8225 33.5247C26.4379 32.8661 27.1962 32.5367 28.0975 32.5367C28.5742 32.5367 29.0162 32.6451 29.4235 32.8617C29.8395 33.0697 30.1602 33.3384 30.3855 33.6677V29.4167H31.5035V39.1667H30.3855V38.1657C30.1602 38.4951 29.8395 38.7681 29.4235 38.9847C29.0162 39.1927 28.5742 39.2967 28.0975 39.2967ZM28.2665 38.2697C28.9079 38.2697 29.4365 38.0444 29.8525 37.5937C30.2685 37.1431 30.4765 36.5841 30.4765 35.9167C30.4765 35.2494 30.2685 34.6904 29.8525 34.2397C29.4365 33.7891 28.9079 33.5637 28.2665 33.5637C27.6165 33.5637 27.0835 33.7891 26.6675 34.2397C26.2515 34.6904 26.0435 35.2494 26.0435 35.9167C26.0435 36.5841 26.2515 37.1431 26.6675 37.5937C27.0835 38.0444 27.6165 38.2697 28.2665 38.2697ZM35.909 39.2967C35.1983 39.2967 34.622 39.0584 34.18 38.5817C33.738 38.0964 33.517 37.4551 33.517 36.6577V32.6667H34.635V36.4887C34.635 37.0347 34.765 37.4681 35.025 37.7887C35.2937 38.1094 35.6533 38.2697 36.104 38.2697C36.624 38.2697 37.053 38.0574 37.391 37.6327C37.7377 37.1994 37.911 36.6187 37.911 35.8907V32.6667H39.029V39.1667H37.911V38.1657C37.4863 38.9197 36.819 39.2967 35.909 39.2967ZM42.0094 39.1667V31.0807H39.1364V29.9367H46.0654V31.0807H43.1924V39.1667H42.0094ZM48.9835 39.2967C48.0388 39.2967 47.2545 38.9761 46.6305 38.3347C46.0151 37.6934 45.7075 36.8874 45.7075 35.9167C45.7075 34.9374 46.0065 34.1314 46.6045 33.4987C47.2111 32.8574 48.0128 32.5367 49.0095 32.5367C50.0148 32.5367 50.8035 32.8921 51.3755 33.6027C51.9475 34.3134 52.1988 35.1844 52.1295 36.2157H46.8385C46.8558 36.8051 47.0725 37.2991 47.4885 37.6977C47.9045 38.0877 48.4071 38.2827 48.9965 38.2827C49.8805 38.2827 50.5088 37.9187 50.8815 37.1907H52.0255C51.8608 37.7974 51.5098 38.3001 50.9725 38.6987C50.4351 39.0974 49.7721 39.2967 48.9835 39.2967ZM50.2575 33.9927C49.9021 33.6807 49.4731 33.5247 48.9705 33.5247C48.4678 33.5247 48.0171 33.6764 47.6185 33.9797C47.2285 34.2831 46.9858 34.7337 46.8905 35.3317H50.9465C50.8425 34.7424 50.6128 34.2961 50.2575 33.9927ZM56.6288 39.2967C55.6494 39.2967 54.8391 38.9717 54.1978 38.3217C53.5564 37.6631 53.2358 36.8614 53.2358 35.9167C53.2358 34.9721 53.5564 34.1747 54.1978 33.5247C54.8391 32.8661 55.6494 32.5367 56.6288 32.5367C57.4348 32.5367 58.1324 32.7621 58.7218 33.2127C59.3111 33.6547 59.7054 34.2354 59.9048 34.9547H58.7088C58.5528 34.5301 58.2928 34.1921 57.9288 33.9407C57.5648 33.6894 57.1314 33.5637 56.6288 33.5637C55.9614 33.5637 55.4154 33.7891 54.9908 34.2397C54.5748 34.6904 54.3668 35.2494 54.3668 35.9167C54.3668 36.5841 54.5748 37.1431 54.9908 37.5937C55.4154 38.0444 55.9614 38.2697 56.6288 38.2697C57.1314 38.2697 57.5648 38.1441 57.9288 37.8927C58.2928 37.6414 58.5528 37.3034 58.7088 36.8787H59.9048C59.7141 37.5981 59.3241 38.1831 58.7348 38.6337C58.1454 39.0757 57.4434 39.2967 56.6288 39.2967ZM62.5034 39.1667H61.3854V29.4167H62.5034V33.6677C62.9454 32.9137 63.6344 32.5367 64.5704 32.5367C65.307 32.5367 65.9007 32.7751 66.3514 33.2517C66.802 33.7284 67.0274 34.3654 67.0274 35.1627V39.1667H65.9224V35.3317C65.9224 34.7857 65.7837 34.3567 65.5064 34.0447C65.229 33.7241 64.8564 33.5637 64.3884 33.5637C63.851 33.5637 63.4004 33.7761 63.0364 34.2007C62.681 34.6254 62.5034 35.2061 62.5034 35.9427V39.1667ZM159.27 38.0877V39.1667H153.29V38.7247C153.29 38.4041 153.337 38.1007 153.433 37.8147C153.537 37.5201 153.649 37.2731 153.771 37.0737C153.892 36.8744 154.083 36.6534 154.343 36.4107C154.603 36.1594 154.806 35.9774 154.954 35.8647C155.101 35.7434 155.348 35.5614 155.695 35.3187C156.041 35.0674 156.271 34.9027 156.384 34.8247C156.999 34.3741 157.424 33.9971 157.658 33.6937C157.9 33.3817 158.022 32.9744 158.022 32.4717C158.022 31.9864 157.866 31.6007 157.554 31.3147C157.242 31.0201 156.834 30.8727 156.332 30.8727C155.803 30.8727 155.352 31.0331 154.98 31.3537C154.607 31.6744 154.421 32.1207 154.421 32.6927H153.277C153.277 31.8261 153.563 31.1241 154.135 30.5867C154.715 30.0494 155.443 29.7807 156.319 29.7807C157.133 29.7807 157.809 30.0147 158.347 30.4827C158.893 30.9507 159.166 31.6181 159.166 32.4847C159.166 33.1434 159.005 33.7067 158.685 34.1747C158.364 34.6341 157.814 35.1454 157.034 35.7087C156.886 35.8127 156.678 35.9601 156.41 36.1507C156.141 36.3327 155.933 36.4801 155.786 36.5927C155.638 36.7054 155.474 36.8441 155.292 37.0087C155.118 37.1647 154.98 37.3337 154.876 37.5157C154.78 37.6891 154.711 37.8797 154.668 38.0877H159.27ZM163.464 39.2967C162.632 39.2967 161.912 39.0367 161.306 38.5167C160.699 37.9967 160.387 37.3814 160.37 36.6707H161.514C161.618 37.1214 161.847 37.4897 162.203 37.7757C162.558 38.0617 162.978 38.2047 163.464 38.2047C164.027 38.2047 164.499 38.0141 164.881 37.6327C165.262 37.2514 165.453 36.7834 165.453 36.2287C165.453 35.6654 165.271 35.1931 164.907 34.8117C164.543 34.4304 164.079 34.2397 163.516 34.2397C162.744 34.2397 162.164 34.5517 161.774 35.1757L160.708 34.8637L161.657 29.9367H165.973V31.0287H162.554L162.047 33.6677C162.497 33.3471 163.035 33.1867 163.659 33.1867C164.517 33.1867 165.219 33.4901 165.765 34.0967C166.319 34.6947 166.597 35.4531 166.597 36.3717C166.597 37.1864 166.298 37.8797 165.7 38.4517C165.102 39.0151 164.356 39.2967 163.464 39.2967ZM171.234 39.1667H170.025L175.875 29.9367H177.084L171.234 39.1667ZM177.019 39.2707C176.308 39.2707 175.701 39.0194 175.199 38.5167C174.705 38.0141 174.458 37.4117 174.458 36.7097C174.458 35.9991 174.705 35.3967 175.199 34.9027C175.701 34.4001 176.308 34.1487 177.019 34.1487C177.721 34.1487 178.323 34.4001 178.826 34.9027C179.328 35.3967 179.58 35.9991 179.58 36.7097C179.58 37.4117 179.328 38.0141 178.826 38.5167C178.323 39.0194 177.721 39.2707 177.019 39.2707ZM177.019 38.2567C177.435 38.2567 177.794 38.1051 178.098 37.8017C178.401 37.4897 178.553 37.1257 178.553 36.7097C178.553 36.2937 178.401 35.9341 178.098 35.6307C177.794 35.3187 177.435 35.1627 177.019 35.1627C176.585 35.1627 176.221 35.3144 175.927 35.6177C175.632 35.9211 175.485 36.2851 175.485 36.7097C175.485 37.1344 175.632 37.4984 175.927 37.8017C176.221 38.1051 176.585 38.2567 177.019 38.2567ZM170.09 34.9547C169.379 34.9547 168.772 34.7034 168.27 34.2007C167.776 33.6981 167.529 33.0957 167.529 32.3937C167.529 31.6831 167.776 31.0807 168.27 30.5867C168.772 30.0841 169.379 29.8327 170.09 29.8327C170.792 29.8327 171.394 30.0841 171.897 30.5867C172.399 31.0807 172.651 31.6831 172.651 32.3937C172.651 33.0957 172.399 33.6981 171.897 34.2007C171.394 34.7034 170.792 34.9547 170.09 34.9547ZM170.09 33.9407C170.506 33.9407 170.865 33.7891 171.169 33.4857C171.472 33.1737 171.624 32.8097 171.624 32.3937C171.624 31.9777 171.472 31.6181 171.169 31.3147C170.865 31.0027 170.506 30.8467 170.09 30.8467C169.656 30.8467 169.292 30.9984 168.998 31.3017C168.703 31.6051 168.556 31.9691 168.556 32.3937C168.556 32.8184 168.703 33.1824 168.998 33.4857C169.292 33.7891 169.656 33.9407 170.09 33.9407Z" fill="#16054E"/>
<rect y="56.5" width="8.66667" height="8.66667" rx="4.33333" fill="#F5A623"/>
<path d="M22.7153 65.3227C21.3547 65.3227 20.215 64.8677 19.2963 63.9577C18.3863 63.0391 17.9313 61.9037 17.9313 60.5517C17.9313 59.1997 18.3863 58.0687 19.2963 57.1587C20.215 56.2401 21.3547 55.7807 22.7153 55.7807C23.7553 55.7807 24.674 56.0624 25.4713 56.6257C26.2687 57.1804 26.806 57.8607 27.0833 58.6667H25.7443C25.4843 58.1467 25.0857 57.7264 24.5483 57.4057C24.011 57.0851 23.4 56.9247 22.7153 56.9247C21.6927 56.9247 20.839 57.2757 20.1543 57.9777C19.4783 58.6711 19.1403 59.5291 19.1403 60.5517C19.1403 61.5744 19.4783 62.4367 20.1543 63.1387C20.839 63.8321 21.6927 64.1787 22.7153 64.1787C23.66 64.1787 24.4357 63.8841 25.0423 63.2947C25.6577 62.7054 26.0087 61.9471 26.0953 61.0197H22.6633V59.8887H27.3433C27.4647 61.5181 27.0747 62.8311 26.1733 63.8277C25.272 64.8244 24.1193 65.3227 22.7153 65.3227ZM31.6776 65.2967C30.7763 65.2967 30.0179 64.9674 29.4026 64.3087C28.7959 63.6501 28.4926 62.8527 28.4926 61.9167C28.4926 60.9807 28.7959 60.1834 29.4026 59.5247C30.0179 58.8661 30.7763 58.5367 31.6776 58.5367C32.1543 58.5367 32.5963 58.6451 33.0036 58.8617C33.4196 59.0697 33.7403 59.3384 33.9656 59.6677V58.6667H35.0836V65.1667H33.9656V64.1657C33.7403 64.4951 33.4196 64.7681 33.0036 64.9847C32.5963 65.1927 32.1543 65.2967 31.6776 65.2967ZM31.8466 64.2697C32.4879 64.2697 33.0166 64.0444 33.4326 63.5937C33.8486 63.1431 34.0566 62.5841 34.0566 61.9167C34.0566 61.2494 33.8486 60.6904 33.4326 60.2397C33.0166 59.7891 32.4879 59.5637 31.8466 59.5637C31.1966 59.5637 30.6636 59.7891 30.2476 60.2397C29.8316 60.6904 29.6236 61.2494 29.6236 61.9167C29.6236 62.5841 29.8316 63.1431 30.2476 63.5937C30.6636 64.0444 31.1966 64.2697 31.8466 64.2697ZM45.5601 65.1667V61.3447C45.5601 60.8074 45.4474 60.3784 45.2221 60.0577C45.0054 59.7284 44.6891 59.5637 44.2731 59.5637C43.7531 59.5637 43.3284 59.7674 42.9991 60.1747C42.6784 60.5821 42.5094 61.1367 42.4921 61.8387V65.1667H41.3741V61.3447C41.3741 60.7987 41.2614 60.3654 41.0361 60.0447C40.8194 59.7241 40.5074 59.5637 40.1001 59.5637C39.5628 59.5637 39.1294 59.7804 38.8001 60.2137C38.4708 60.6384 38.3061 61.2147 38.3061 61.9427V65.1667H37.1881V58.6667H38.3061V59.6677C38.7221 58.9137 39.3764 58.5367 40.2691 58.5367C41.2571 58.5367 41.9244 59.0004 42.2711 59.9277C42.4444 59.5031 42.7218 59.1651 43.1031 58.9137C43.4844 58.6624 43.9178 58.5367 44.4031 58.5367C45.1051 58.5367 45.6598 58.7751 46.0671 59.2517C46.4744 59.7284 46.6781 60.3697 46.6781 61.1757V65.1667H45.5601ZM51.459 65.2967C50.5144 65.2967 49.73 64.9761 49.106 64.3347C48.4907 63.6934 48.183 62.8874 48.183 61.9167C48.183 60.9374 48.482 60.1314 49.08 59.4987C49.6867 58.8574 50.4884 58.5367 51.485 58.5367C52.4904 58.5367 53.279 58.8921 53.851 59.6027C54.423 60.3134 54.6744 61.1844 54.605 62.2157H49.314C49.3314 62.8051 49.548 63.2991 49.964 63.6977C50.38 64.0877 50.8827 64.2827 51.472 64.2827C52.356 64.2827 52.9844 63.9187 53.357 63.1907H54.501C54.3364 63.7974 53.9854 64.3001 53.448 64.6987C52.9107 65.0974 52.2477 65.2967 51.459 65.2967ZM52.733 59.9927C52.3777 59.6807 51.9487 59.5247 51.446 59.5247C50.9434 59.5247 50.4927 59.6764 50.094 59.9797C49.704 60.2831 49.4614 60.7337 49.366 61.3317H53.422C53.318 60.7424 53.0884 60.2961 52.733 59.9927Z" fill="#16054E"/>
<path d="M159.644 65.1667V57.0417H157.863L158.773 55.9367H160.762V65.1667H159.644ZM165.549 65.2967C164.717 65.2967 163.997 65.0367 163.391 64.5167C162.784 63.9967 162.472 63.3814 162.455 62.6707H163.599C163.703 63.1214 163.932 63.4897 164.288 63.7757C164.643 64.0617 165.063 64.2047 165.549 64.2047C166.112 64.2047 166.584 64.0141 166.966 63.6327C167.347 63.2514 167.538 62.7834 167.538 62.2287C167.538 61.6654 167.356 61.1931 166.992 60.8117C166.628 60.4304 166.164 60.2397 165.601 60.2397C164.829 60.2397 164.249 60.5517 163.859 61.1757L162.793 60.8637L163.742 55.9367H168.058V57.0287H164.639L164.132 59.6677C164.582 59.3471 165.12 59.1867 165.744 59.1867C166.602 59.1867 167.304 59.4901 167.85 60.0967C168.404 60.6947 168.682 61.4531 168.682 62.3717C168.682 63.1864 168.383 63.8797 167.785 64.4517C167.187 65.0151 166.441 65.2967 165.549 65.2967ZM173.319 65.1667H172.11L177.96 55.9367H179.169L173.319 65.1667ZM179.104 65.2707C178.393 65.2707 177.786 65.0194 177.284 64.5167C176.79 64.0141 176.543 63.4117 176.543 62.7097C176.543 61.9991 176.79 61.3967 177.284 60.9027C177.786 60.4001 178.393 60.1487 179.104 60.1487C179.806 60.1487 180.408 60.4001 180.911 60.9027C181.413 61.3967 181.665 61.9991 181.665 62.7097C181.665 63.4117 181.413 64.0141 180.911 64.5167C180.408 65.0194 179.806 65.2707 179.104 65.2707ZM179.104 64.2567C179.52 64.2567 179.879 64.1051 180.183 63.8017C180.486 63.4897 180.638 63.1257 180.638 62.7097C180.638 62.2937 180.486 61.9341 180.183 61.6307C179.879 61.3187 179.52 61.1627 179.104 61.1627C178.67 61.1627 178.306 61.3144 178.012 61.6177C177.717 61.9211 177.57 62.2851 177.57 62.7097C177.57 63.1344 177.717 63.4984 178.012 63.8017C178.306 64.1051 178.67 64.2567 179.104 64.2567ZM172.175 60.9547C171.464 60.9547 170.857 60.7034 170.355 60.2007C169.861 59.6981 169.614 59.0957 169.614 58.3937C169.614 57.6831 169.861 57.0807 170.355 56.5867C170.857 56.0841 171.464 55.8327 172.175 55.8327C172.877 55.8327 173.479 56.0841 173.982 56.5867C174.484 57.0807 174.736 57.6831 174.736 58.3937C174.736 59.0957 174.484 59.6981 173.982 60.2007C173.479 60.7034 172.877 60.9547 172.175 60.9547ZM172.175 59.9407C172.591 59.9407 172.95 59.7891 173.254 59.4857C173.557 59.1737 173.709 58.8097 173.709 58.3937C173.709 57.9777 173.557 57.6181 173.254 57.3147C172.95 57.0027 172.591 56.8467 172.175 56.8467C171.741 56.8467 171.377 56.9984 171.083 57.3017C170.788 57.6051 170.641 57.9691 170.641 58.3937C170.641 58.8184 170.788 59.1824 171.083 59.4857C171.377 59.7891 171.741 59.9407 172.175 59.9407Z" fill="#16054E"/>
</svg>
